Patient4_TMGait_0pt6_02_left_01_EMG.mot
version=1
nRows=16
nColumns=33
inDegrees=no
endheader
time	1LAddLong	2LGlutMax	3LGlutMed	4LIliopsoas	5LSemiMemb	6LBicFemLong	7LRecFem	8LVastMed	9LVastLat	10LGasMed	11LTibAnt	12lTibPost	13LPeroneusLong	14LSol	15LExtDigLong	16LFlexDigLong	17RAddLong	18RGlutMax	19RGlutMed	20RIliopsoas	21RSemiMemb	22RBicFemLong	23RRecFem	24RVastMed	25RVastLat	26RGasMed	27RTibAnt	28RTibPost	29RPeroneusLong	30RSol	31RExtDigLong	32RFlexDigLong
1.96	-0.005646	-0.034332	-0.25986	0.002747	0.011902	0.011444	0.14343	0.010376	-0.048065	-0.13886	0.044708	-0.092468	-0.085449	-0.030212	0.00946	0.005188	-0.001831	-0.068665	0.93124	-0.13886	-0.54336	-0.077362	0.31311	-0.1857	0.84717	-0.012207	-0.046082	-0.010681	-0.042419	0.039063	-0.005035	-0.007324
1.961	-0.003662	0.001221	-0.25909	0.005798	0.007019	0.043793	0.14358	0.007019	-0.040741	-0.089569	0.022125	-0.083008	0.028839	0.11444	0.006104	0.009308	-0.05188	-0.1004	1.0007	-0.13123	-0.39551	0.084839	0.19257	-0.036163	0.26535	-0.007629	-0.11505	-0.012665	0.14221	0.0177	-0.003052	-0.010071
1.962	0.001831	-0.02533	-0.26627	0.009003	-0.007935	0.036926	0.12894	0.003357	-0.038452	-0.076294	0.00351	-0.067749	0.039825	0.1474	-0.015106	0.011902	-0.050659	-0.029602	0.71487	-0.20691	-0.68527	0.32196	-0.019989	0.54291	-0.28046	-0.008087	-0.002747	-0.014038	0.2475	0.02121	-0.00412	-0.010376
1.963	-0.00061	-0.022125	-0.28122	-0.009155	-0.018768	0.005035	0.13062	0.002899	-0.029907	-0.035706	-0.031433	-0.055389	0.048218	0.076752	-0.07782	0.003662	-0.050049	-0.07782	-0.11688	-0.089569	-0.36072	0.44937	-0.26566	0.52856	-0.62454	-0.006561	0.053101	-0.013885	-0.013123	0.030518	-0.001678	0
1.964	-0.002136	-0.015717	-0.29984	-0.006256	-0.025482	-0.024261	0.13107	-0.005035	-0.014801	-0.026703	-0.032196	-0.05249	0.038452	-0.0737	-0.10757	0.001526	-0.003662	-0.018158	-0.55008	0.028534	0.14053	0.32455	-0.49301	0.39078	-0.45166	-0.00351	-0.041199	-0.003357	-0.80521	-0.009918	-0.003815	-0.003052
1.965	0.002136	-0.046387	-0.33722	0.010223	-0.02243	-0.064392	0.14297	0.001678	-0.01297	-0.007629	-0.043488	-0.049438	0.051117	-0.15366	-0.12405	0.00885	0.097961	-0.10132	-0.37262	0.10269	0.047913	0.031738	-0.59052	0.031891	-0.016479	0.000916	-0.092926	-0.010071	-1.3454	-0.023804	0	-0.003204
1.966	0.000458	-0.058136	-0.3862	0.020142	-0.015869	-0.095062	0.1294	0.003052	-0.02655	-0.003052	-0.026398	-0.045013	0.036621	-0.006256	-0.031586	0.007935	0.17212	-0.012665	-0.2623	0.19424	-0.233	-0.032654	-0.50369	-0.37964	0.25192	-0.001678	-0.073395	-0.009918	-0.68619	-0.007324	0.005035	0.014954
1.967	0.006104	-0.037079	-0.3775	-0.003357	-0.004272	-0.11734	0.15549	-0.035248	-0.029907	-0.003662	-0.005188	-0.031281	0.007629	0.094147	0.009155	0.008087	0.21454	0.037994	-0.067139	0.18402	-0.39612	-0.26001	-0.25635	-0.52078	0.41046	0.000153	-0.051575	-0.008392	1.1485	-0.011292	0.001068	0.005341
1.968	0.000916	-0.077209	-0.37262	-0.016479	0.022278	-0.17151	0.16388	-0.000458	-0.032654	0.010071	-0.005188	-0.035248	0.003052	0.10941	0.019379	0.005951	0.14435	0.080414	-0.018005	0.09201	-0.86273	-0.19073	-0.06073	-0.36377	0.36179	-0.001221	-0.002441	-0.01236	1.2154	0.058136	-0.006104	0.005493
1.969	0.00946	-0.066986	-0.40131	0.005646	0.042267	-0.15961	0.14832	-0.001984	-0.016937	-0.012817	-0.058746	-0.02655	-0.025024	0.072327	0.031128	0.009003	-0.04425	0.092468	-0.38589	-0.0354	-0.5722	-0.26382	0.085907	-0.2858	0.12192	0.001221	-0.00946	-0.010376	-0.029297	0.056152	-0.003662	-0.000916
1.97	0.01709	-0.050659	-0.41351	0.019531	0.033875	-0.085754	0.12924	0.004883	-0.024261	-0.076904	-0.055237	-0.032501	-0.034027	-0.025177	0.068665	0.005646	-0.19562	0.091248	-0.31723	-0.014038	-0.63995	-0.33768	0.095062	-0.10391	-0.096893	0.010376	-0.036774	-0.010529	-0.66437	-0.083313	-0.001221	0.003357
1.971	-0.001526	-0.07019	-0.41122	0.020447	0.030212	-0.00061	0.14801	0.005035	-0.036011	-0.11002	-0.058136	-0.035095	0.03891	-0.06134	0.073547	0.013123	-0.242	0.097961	-0.31921	0.022583	-0.4187	-0.56503	0.16113	0.070038	-0.30914	0.006561	-0.015106	-0.011139	0.55435	-0.12482	0.001373	-0.001678
1.972	-0.00473	-0.051422	-0.39536	0.014343	0.020447	0.034637	0.1535	0.002136	-0.036926	-0.10208	-0.16571	-0.028381	0.12848	0.007782	0.054779	0.005646	-0.13336	0.097198	-0.1091	0.021362	-0.36972	-0.81955	0.3009	0.004883	-0.62103	0.00473	-0.050201	-0.015259	0.40222	0.062714	0.008545	-0.004578
1.973	-0.008392	-0.073547	-0.40756	0.001526	0.014954	0.020752	0.15182	-0.002289	-0.025177	-0.062408	-0.12833	-0.017395	0.11414	0.092621	0.050354	-0.000305	-0.058594	0.072632	-0.17471	0.060577	-0.33264	-0.44098	0.35553	-0.037384	-0.47669	0.000305	-0.018616	-0.013428	-0.026093	0.22492	0.000916	-0.001678
1.974	-0.001526	-0.06485	-0.4393	-0.00824	0.002441	-0.04425	0.15015	-0.005341	-0.023804	0.009613	0.079041	-0.032349	-0.005798	0.12604	0.10086	-0.014191	-0.007477	0.12604	-0.17746	0.068359	-0.64743	-0.056458	0.29312	-0.013275	-0.48645	-0.005798	0.050354	-0.013885	0.13077	0.24262	-0.001526	-0.012512
1.975	-0.001068	-0.055847	-0.44586	-0.014801	-0.004578	-0.039368	0.13016	-0.001221	-0.011749	0.036163	0.10574	-0.025177	-0.031433	0.077209	0.10239	-0.001678	-0.001678	0.11597	0.027313	0.096436	-0.92636	-0.11932	0.29129	-0.098419	-0.4924	0.000305	0.17014	-0.012054	0.056305	0.15289	-0.003967	-0.012817
